<svg version="1.0" xmlns="http://www.w3.org/2000/svg"
                width="96.000000pt" height="96.000000pt" viewBox="0 0 96.000000 96.000000"
                preserveAspectRatio="xMidYMid meet">
<g transform="translate(0.000000,96.000000) scale(0.100000,-0.100000)"
fill="#000000" stroke="none">
<path d="M423 730 c-34 -21 -63 -66 -63 -100 0 -54 65 -120 118 -120 57 0 122
64 122 121 0 14 -10 41 -23 60 -40 60 -97 74 -154 39z"/>
<path d="M123 640 c-34 -21 -63 -66 -63 -100 0 -54 65 -120 118 -120 57 0 122
64 122 121 0 14 -10 41 -23 60 -40 60 -97 74 -154 39z"/>
<path d="M723 640 c-34 -21 -63 -66 -63 -100 0 -54 65 -120 118 -120 57 0 122
64 122 121 0 14 -10 41 -23 60 -40 60 -97 74 -154 39z"/>
<path d="M420 441 c-114 -37 -170 -114 -178 -244 l-5 -77 243 0 243 0 -5 78
c-7 111 -48 180 -132 224 -43 22 -128 32 -166 19z"/>
<path d="M180 350 c-91 -25 -158 -99 -175 -193 l-7 -37 91 0 91 0 0 70 c0 38
7 90 16 116 8 25 14 47 12 48 -2 2 -14 0 -28 -4z"/>
<path d="M750 352 c0 -4 7 -25 15 -47 8 -22 14 -73 15 -112 l0 -73 91 0 91 0
-7 37 c-17 95 -83 167 -177 194 -15 4 -28 5 -28 1z"/>
</g>
</svg>
